<svg xmlns="http://www.w3.org/2000/svg" xmlns:xlink="http://www.w3.org/1999/xlink" width="500" zoomAndPan="magnify" viewBox="0 0 375 374.999991" height="500" preserveAspectRatio="xMidYMid meet" version="1.0"><defs><g/><clipPath id="7c228f6899"><path d="M 46.03125 174 L 128.53125 174 L 128.53125 212 L 46.03125 212 Z M 46.03125 174 " clip-rule="nonzero"/></clipPath><clipPath id="c6b6fb496a"><path d="M 46.03125 160.972656 L 128 160.972656 L 128 195 L 46.03125 195 Z M 46.03125 160.972656 " clip-rule="nonzero"/></clipPath></defs><rect x="-37.5" width="450" fill="#ffffff" y="-37.499999" height="449.999989" fill-opacity="1"/><rect x="-37.5" width="450" fill="#ffffff" y="-37.499999" height="449.999989" fill-opacity="1"/><g clip-path="url(#7c228f6899)"><path fill="#1cb6bd" d="M 128.339844 186.265625 C 105.71875 211.949219 58.023438 202.566406 46.914062 174.507812 C 49.175781 186.460938 57.828125 197.429688 67.859375 204.34375 C 80.644531 213.234375 94.902344 214.222656 109.0625 208.097656 L 103.457031 207.605469 C 111.523438 205.527344 126.570312 196.339844 128.339844 186.164062 Z M 128.339844 186.265625 " fill-opacity="1" fill-rule="evenodd"/></g><g clip-path="url(#c6b6fb496a)"><path fill="#0483b3" d="M 46.222656 160.972656 C 49.074219 162.453125 53.007812 163.148438 57.730469 164.53125 C 55.863281 163.738281 54.289062 162.75 53.007812 161.46875 C 78.480469 170.65625 91.363281 173.027344 117.03125 165.519531 C 115.652344 166.800781 114.078125 167.789062 112.113281 168.582031 C 118.011719 167.394531 123.226562 165.121094 127.648438 162.257812 C 124.011719 182.808594 70.414062 182.609375 60.582031 171.9375 C 68.546875 183.300781 100.902344 187.152344 127.648438 176.878906 C 126.078125 184.289062 112.800781 191.402344 96.378906 192.191406 C 97.851562 193.179688 99.328125 193.277344 101.195312 193.871094 C 91.363281 196.242188 46.222656 189.226562 46.222656 160.972656 Z M 46.222656 160.972656 " fill-opacity="1" fill-rule="evenodd"/></g><g fill="#0483b3" fill-opacity="1"><g transform="translate(134.132736, 198.223156)"><g><path d="M 36.046875 -28.3125 L 36.046875 0 L 27.203125 0 L 27.203125 -14.125 L 22.84375 0 L 15.234375 0 L 10.875 -14.125 L 10.875 0 L 2 0 L 2 -28.3125 L 12.875 -28.3125 L 19.125 -11.3125 L 25.203125 -28.3125 Z M 36.046875 -28.3125 "/></g></g></g><g fill="#0483b3" fill-opacity="1"><g transform="translate(172.168958, 198.223156)"><g><path d="M 10.6875 -28.3125 L 10.6875 -12.359375 C 10.6875 -11.054688 10.972656 -10.023438 11.546875 -9.265625 C 12.117188 -8.503906 13.039062 -8.125 14.3125 -8.125 C 15.59375 -8.125 16.539062 -8.503906 17.15625 -9.265625 C 17.769531 -10.023438 18.078125 -11.054688 18.078125 -12.359375 L 18.078125 -28.3125 L 26.921875 -28.3125 L 26.921875 -12.359375 C 26.921875 -9.660156 26.359375 -7.359375 25.234375 -5.453125 C 24.117188 -3.546875 22.585938 -2.113281 20.640625 -1.15625 C 18.691406 -0.195312 16.519531 0.28125 14.125 0.28125 C 11.71875 0.28125 9.585938 -0.195312 7.734375 -1.15625 C 5.878906 -2.113281 4.429688 -3.539062 3.390625 -5.4375 C 2.359375 -7.332031 1.84375 -9.640625 1.84375 -12.359375 L 1.84375 -28.3125 Z M 10.6875 -28.3125 "/></g></g></g><g fill="#0483b3" fill-opacity="1"><g transform="translate(200.926105, 198.223156)"><g><path d="M 13.078125 0.28125 C 9.691406 0.28125 6.898438 -0.507812 4.703125 -2.09375 C 2.503906 -3.6875 1.3125 -6.015625 1.125 -9.078125 L 10.5625 -9.078125 C 10.695312 -7.453125 11.414062 -6.640625 12.71875 -6.640625 C 13.195312 -6.640625 13.601562 -6.75 13.9375 -6.96875 C 14.269531 -7.195312 14.4375 -7.554688 14.4375 -8.046875 C 14.4375 -8.710938 14.078125 -9.25 13.359375 -9.65625 C 12.640625 -10.070312 11.519531 -10.546875 10 -11.078125 C 8.1875 -11.722656 6.6875 -12.347656 5.5 -12.953125 C 4.3125 -13.566406 3.289062 -14.460938 2.4375 -15.640625 C 1.582031 -16.816406 1.171875 -18.320312 1.203125 -20.15625 C 1.203125 -22 1.675781 -23.566406 2.625 -24.859375 C 3.570312 -26.148438 4.863281 -27.128906 6.5 -27.796875 C 8.132812 -28.460938 9.984375 -28.796875 12.046875 -28.796875 C 15.503906 -28.796875 18.253906 -27.992188 20.296875 -26.390625 C 22.335938 -24.796875 23.410156 -22.546875 23.515625 -19.640625 L 13.953125 -19.640625 C 13.929688 -20.441406 13.734375 -21.015625 13.359375 -21.359375 C 12.984375 -21.703125 12.53125 -21.875 12 -21.875 C 11.625 -21.875 11.316406 -21.75 11.078125 -21.5 C 10.835938 -21.25 10.71875 -20.894531 10.71875 -20.4375 C 10.71875 -19.800781 11.070312 -19.273438 11.78125 -18.859375 C 12.488281 -18.441406 13.613281 -17.941406 15.15625 -17.359375 C 16.945312 -16.691406 18.421875 -16.050781 19.578125 -15.4375 C 20.734375 -14.820312 21.738281 -13.96875 22.59375 -12.875 C 23.445312 -11.78125 23.875 -10.410156 23.875 -8.765625 C 23.875 -7.023438 23.445312 -5.46875 22.59375 -4.09375 C 21.738281 -2.726562 20.5 -1.65625 18.875 -0.875 C 17.25 -0.101562 15.316406 0.28125 13.078125 0.28125 Z M 13.078125 0.28125 "/></g></g></g><g fill="#0483b3" fill-opacity="1"><g transform="translate(225.923616, 198.223156)"><g><path d="M 29.15625 0 L 20.28125 0 L 10.875 -14.234375 L 10.875 0 L 2 0 L 2 -28.3125 L 10.875 -28.3125 L 20.28125 -13.84375 L 20.28125 -28.3125 L 29.15625 -28.3125 Z M 29.15625 0 "/></g></g></g><g fill="#0483b3" fill-opacity="1"><g transform="translate(257.08052, 198.223156)"><g><path d="M 10.875 -21.234375 L 10.875 -17.765625 L 19.6875 -17.765625 L 19.6875 -11.078125 L 10.875 -11.078125 L 10.875 -7.078125 L 20.875 -7.078125 L 20.875 0 L 2 0 L 2 -28.3125 L 20.875 -28.3125 L 20.875 -21.234375 Z M 10.875 -21.234375 "/></g></g></g><g fill="#0483b3" fill-opacity="1"><g transform="translate(279.318312, 198.223156)"><g><path d="M 13.078125 0.28125 C 9.691406 0.28125 6.898438 -0.507812 4.703125 -2.09375 C 2.503906 -3.6875 1.3125 -6.015625 1.125 -9.078125 L 10.5625 -9.078125 C 10.695312 -7.453125 11.414062 -6.640625 12.71875 -6.640625 C 13.195312 -6.640625 13.601562 -6.75 13.9375 -6.96875 C 14.269531 -7.195312 14.4375 -7.554688 14.4375 -8.046875 C 14.4375 -8.710938 14.078125 -9.25 13.359375 -9.65625 C 12.640625 -10.070312 11.519531 -10.546875 10 -11.078125 C 8.1875 -11.722656 6.6875 -12.347656 5.5 -12.953125 C 4.3125 -13.566406 3.289062 -14.460938 2.4375 -15.640625 C 1.582031 -16.816406 1.171875 -18.320312 1.203125 -20.15625 C 1.203125 -22 1.675781 -23.566406 2.625 -24.859375 C 3.570312 -26.148438 4.863281 -27.128906 6.5 -27.796875 C 8.132812 -28.460938 9.984375 -28.796875 12.046875 -28.796875 C 15.503906 -28.796875 18.253906 -27.992188 20.296875 -26.390625 C 22.335938 -24.796875 23.410156 -22.546875 23.515625 -19.640625 L 13.953125 -19.640625 C 13.929688 -20.441406 13.734375 -21.015625 13.359375 -21.359375 C 12.984375 -21.703125 12.53125 -21.875 12 -21.875 C 11.625 -21.875 11.316406 -21.75 11.078125 -21.5 C 10.835938 -21.25 10.71875 -20.894531 10.71875 -20.4375 C 10.71875 -19.800781 11.070312 -19.273438 11.78125 -18.859375 C 12.488281 -18.441406 13.613281 -17.941406 15.15625 -17.359375 C 16.945312 -16.691406 18.421875 -16.050781 19.578125 -15.4375 C 20.734375 -14.820312 21.738281 -13.96875 22.59375 -12.875 C 23.445312 -11.78125 23.875 -10.410156 23.875 -8.765625 C 23.875 -7.023438 23.445312 -5.46875 22.59375 -4.09375 C 21.738281 -2.726562 20.5 -1.65625 18.875 -0.875 C 17.25 -0.101562 15.316406 0.28125 13.078125 0.28125 Z M 13.078125 0.28125 "/></g></g></g><g fill="#0483b3" fill-opacity="1"><g transform="translate(304.315823, 198.223156)"><g><path d="M 24.234375 -28.3125 L 24.234375 -21.28125 L 16.71875 -21.28125 L 16.71875 0 L 7.84375 0 L 7.84375 -21.28125 L 0.40625 -21.28125 L 0.40625 -28.3125 Z M 24.234375 -28.3125 "/></g></g></g></svg>