<svg xmlns="http://www.w3.org/2000/svg" xmlns:xlink="http://www.w3.org/1999/xlink" width="500" zoomAndPan="magnify" viewBox="0 0 375 374.999991" height="500" preserveAspectRatio="xMidYMid meet" version="1.0"><defs><clipPath id="2e342146b2"><path d="M 38 91.125 L 335 91.125 L 335 212 L 38 212 Z M 38 91.125 " clip-rule="nonzero"/></clipPath></defs><rect x="-37.5" width="450" fill="#ffffff" y="-37.499999" height="449.999989" fill-opacity="1"/><rect x="-37.5" width="450" fill="#ffffff" y="-37.499999" height="449.999989" fill-opacity="1"/><path fill="#1cb6bd" d="M 336.800781 182.671875 C 254.550781 275.648438 81.113281 241.675781 40.703125 140.117188 C 48.925781 183.386719 80.398438 223.082031 116.871094 248.113281 C 163.363281 280.300781 215.214844 283.875 266.710938 261.703125 L 246.328125 259.914062 C 275.648438 252.40625 330.363281 219.148438 336.800781 182.316406 Z M 336.800781 182.671875 " fill-opacity="1" fill-rule="evenodd"/><g clip-path="url(#2e342146b2)"><path fill="#0483b3" d="M 38.199219 91.125 C 48.570312 96.488281 62.875 98.992188 80.039062 104 C 73.246094 101.136719 67.523438 97.5625 62.875 92.914062 C 155.496094 126.171875 202.339844 134.753906 295.675781 107.574219 C 290.667969 112.222656 284.949219 115.800781 277.796875 118.660156 C 299.253906 114.371094 318.207031 106.144531 334.296875 95.773438 C 321.066406 170.15625 126.171875 169.441406 90.410156 130.820312 C 119.375 171.945312 237.027344 185.890625 334.296875 148.699219 C 328.574219 175.519531 280.300781 201.269531 220.578125 204.128906 C 225.941406 207.703125 231.308594 208.0625 238.101562 210.207031 C 202.339844 218.789062 38.199219 193.402344 38.199219 91.125 Z M 38.199219 91.125 " fill-opacity="1" fill-rule="evenodd"/></g></svg>