<svg xmlns="http://www.w3.org/2000/svg" xmlns:xlink="http://www.w3.org/1999/xlink" width="500" zoomAndPan="magnify" viewBox="0 0 375 374.999991" height="500" preserveAspectRatio="xMidYMid meet" version="1.0"><defs><g/><clipPath id="6f3cc1489d"><rect x="0" width="303" y="0" height="88"/></clipPath></defs><rect x="-37.5" width="450" fill="#ffffff" y="-37.499999" height="449.999989" fill-opacity="1"/><rect x="-37.5" width="450" fill="#ffffff" y="-37.499999" height="449.999989" fill-opacity="1"/><g transform="matrix(1, 0, 0, 1, 37, 143)"><g clip-path="url(#6f3cc1489d)"><g fill="#0483b3" fill-opacity="1"><g transform="translate(0.518045, 65.285417)"><g><path d="M 55.484375 -43.59375 L 55.484375 0 L 41.875 0 L 41.875 -21.734375 L 35.15625 0 L 23.46875 0 L 16.75 -21.734375 L 16.75 0 L 3.078125 0 L 3.078125 -43.59375 L 19.828125 -43.59375 L 29.4375 -17.421875 L 38.796875 -43.59375 Z M 55.484375 -43.59375 "/></g></g></g><g fill="#0483b3" fill-opacity="1"><g transform="translate(59.081064, 65.285417)"><g><path d="M 16.4375 -43.59375 L 16.4375 -19.03125 C 16.4375 -17.019531 16.878906 -15.425781 17.765625 -14.25 C 18.648438 -13.082031 20.078125 -12.5 22.046875 -12.5 C 24.015625 -12.5 25.46875 -13.082031 26.40625 -14.25 C 27.351562 -15.425781 27.828125 -17.019531 27.828125 -19.03125 L 27.828125 -43.59375 L 41.4375 -43.59375 L 41.4375 -19.03125 C 41.4375 -14.882812 40.570312 -11.34375 38.84375 -8.40625 C 37.125 -5.46875 34.765625 -3.257812 31.765625 -1.78125 C 28.773438 -0.300781 25.429688 0.4375 21.734375 0.4375 C 18.035156 0.4375 14.757812 -0.300781 11.90625 -1.78125 C 9.0625 -3.257812 6.835938 -5.457031 5.234375 -8.375 C 3.628906 -11.289062 2.828125 -14.84375 2.828125 -19.03125 L 2.828125 -43.59375 Z M 16.4375 -43.59375 "/></g></g></g><g fill="#0483b3" fill-opacity="1"><g transform="translate(103.35742, 65.285417)"><g><path d="M 20.140625 0.4375 C 14.921875 0.4375 10.617188 -0.78125 7.234375 -3.21875 C 3.847656 -5.664062 2.007812 -9.253906 1.71875 -13.984375 L 16.25 -13.984375 C 16.457031 -11.472656 17.566406 -10.21875 19.578125 -10.21875 C 20.316406 -10.21875 20.941406 -10.390625 21.453125 -10.734375 C 21.972656 -11.085938 22.234375 -11.632812 22.234375 -12.375 C 22.234375 -13.40625 21.675781 -14.238281 20.5625 -14.875 C 19.457031 -15.507812 17.734375 -16.238281 15.390625 -17.0625 C 12.597656 -18.039062 10.289062 -19.003906 8.46875 -19.953125 C 6.644531 -20.898438 5.070312 -22.273438 3.75 -24.078125 C 2.4375 -25.878906 1.800781 -28.195312 1.84375 -31.03125 C 1.84375 -33.863281 2.570312 -36.273438 4.03125 -38.265625 C 5.488281 -40.253906 7.476562 -41.765625 10 -42.796875 C 12.53125 -43.828125 15.375 -44.34375 18.53125 -44.34375 C 23.875 -44.34375 28.113281 -43.109375 31.25 -40.640625 C 34.394531 -38.179688 36.046875 -34.710938 36.203125 -30.234375 L 21.484375 -30.234375 C 21.441406 -31.460938 21.132812 -32.34375 20.5625 -32.875 C 19.988281 -33.414062 19.289062 -33.6875 18.46875 -33.6875 C 17.894531 -33.6875 17.421875 -33.488281 17.046875 -33.09375 C 16.679688 -32.707031 16.5 -32.164062 16.5 -31.46875 C 16.5 -30.476562 17.039062 -29.664062 18.125 -29.03125 C 19.21875 -28.394531 20.957031 -27.625 23.34375 -26.71875 C 26.09375 -25.695312 28.359375 -24.710938 30.140625 -23.765625 C 31.929688 -22.828125 33.484375 -21.515625 34.796875 -19.828125 C 36.109375 -18.140625 36.765625 -16.023438 36.765625 -13.484375 C 36.765625 -10.816406 36.109375 -8.425781 34.796875 -6.3125 C 33.484375 -4.195312 31.570312 -2.539062 29.0625 -1.34375 C 26.5625 -0.15625 23.585938 0.4375 20.140625 0.4375 Z M 20.140625 0.4375 "/></g></g></g><g fill="#0483b3" fill-opacity="1"><g transform="translate(141.8452, 65.285417)"><g><path d="M 44.890625 0 L 31.21875 0 L 16.75 -21.921875 L 16.75 0 L 3.078125 0 L 3.078125 -43.59375 L 16.75 -43.59375 L 31.21875 -21.3125 L 31.21875 -43.59375 L 44.890625 -43.59375 Z M 44.890625 0 "/></g></g></g><g fill="#0483b3" fill-opacity="1"><g transform="translate(189.816378, 65.285417)"><g><path d="M 16.75 -32.703125 L 16.75 -27.34375 L 30.296875 -27.34375 L 30.296875 -17.0625 L 16.75 -17.0625 L 16.75 -10.90625 L 32.140625 -10.90625 L 32.140625 0 L 3.078125 0 L 3.078125 -43.59375 L 32.140625 -43.59375 L 32.140625 -32.703125 Z M 16.75 -32.703125 "/></g></g></g><g fill="#0483b3" fill-opacity="1"><g transform="translate(224.055115, 65.285417)"><g><path d="M 20.140625 0.4375 C 14.921875 0.4375 10.617188 -0.78125 7.234375 -3.21875 C 3.847656 -5.664062 2.007812 -9.253906 1.71875 -13.984375 L 16.25 -13.984375 C 16.457031 -11.472656 17.566406 -10.21875 19.578125 -10.21875 C 20.316406 -10.21875 20.941406 -10.390625 21.453125 -10.734375 C 21.972656 -11.085938 22.234375 -11.632812 22.234375 -12.375 C 22.234375 -13.40625 21.675781 -14.238281 20.5625 -14.875 C 19.457031 -15.507812 17.734375 -16.238281 15.390625 -17.0625 C 12.597656 -18.039062 10.289062 -19.003906 8.46875 -19.953125 C 6.644531 -20.898438 5.070312 -22.273438 3.75 -24.078125 C 2.4375 -25.878906 1.800781 -28.195312 1.84375 -31.03125 C 1.84375 -33.863281 2.570312 -36.273438 4.03125 -38.265625 C 5.488281 -40.253906 7.476562 -41.765625 10 -42.796875 C 12.53125 -43.828125 15.375 -44.34375 18.53125 -44.34375 C 23.875 -44.34375 28.113281 -43.109375 31.25 -40.640625 C 34.394531 -38.179688 36.046875 -34.710938 36.203125 -30.234375 L 21.484375 -30.234375 C 21.441406 -31.460938 21.132812 -32.34375 20.5625 -32.875 C 19.988281 -33.414062 19.289062 -33.6875 18.46875 -33.6875 C 17.894531 -33.6875 17.421875 -33.488281 17.046875 -33.09375 C 16.679688 -32.707031 16.5 -32.164062 16.5 -31.46875 C 16.5 -30.476562 17.039062 -29.664062 18.125 -29.03125 C 19.21875 -28.394531 20.957031 -27.625 23.34375 -26.71875 C 26.09375 -25.695312 28.359375 -24.710938 30.140625 -23.765625 C 31.929688 -22.828125 33.484375 -21.515625 34.796875 -19.828125 C 36.109375 -18.140625 36.765625 -16.023438 36.765625 -13.484375 C 36.765625 -10.816406 36.109375 -8.425781 34.796875 -6.3125 C 33.484375 -4.195312 31.570312 -2.539062 29.0625 -1.34375 C 26.5625 -0.15625 23.585938 0.4375 20.140625 0.4375 Z M 20.140625 0.4375 "/></g></g></g><g fill="#0483b3" fill-opacity="1"><g transform="translate(262.542894, 65.285417)"><g><path d="M 37.3125 -43.59375 L 37.3125 -32.765625 L 25.734375 -32.765625 L 25.734375 0 L 12.0625 0 L 12.0625 -32.765625 L 0.609375 -32.765625 L 0.609375 -43.59375 Z M 37.3125 -43.59375 "/></g></g></g></g></g></svg>